<svg xmlns="http://www.w3.org/2000/svg" viewBox="0 0 128 128">
  <defs>
    <linearGradient id="tone" x1="0" y1="0" x2="1" y2="1">
      <stop offset="0" stop-color="#c98b91"/>
      <stop offset="1" stop-color="#5e4245"/>
    </linearGradient>
  </defs>
  <rect width="128" height="128" rx="28" fill="#fffaf6"/>
  <circle cx="64" cy="64" r="46" fill="none" stroke="url(#tone)" stroke-width="4"/>
  <circle cx="64" cy="64" r="36" fill="none" stroke="#d9b1ad" stroke-width="2" opacity=".7"/>
  <path d="M45 91V37h17c11 0 18 6 18 15 0 6-3 10-9 13 8 2 12 7 12 14 0 8-8 12-20 12H45Zm9-30h8c6 0 9-3 9-8s-4-8-10-8h-7v16Zm0 22h9c7 0 11-3 11-8s-4-8-11-8h-9v16Z" fill="#5e4245"/>
  <path d="M82 91V37h31v9H92v15h18v8H92v22H82Z" fill="#8d5f63"/>
  <path d="M34 98c18-9 30-23 35-43" fill="none" stroke="#c98b91" stroke-width="4" stroke-linecap="round"/>
</svg>
