<svg xmlns="http://www.w3.org/2000/svg" viewBox="0 0 980 720" role="img" aria-labelledby="title desc">
  <title id="title">Atendimento estético facial</title>
  <desc id="desc">Imagem editorial de uma paciente recebendo cuidado facial em sala de estética.</desc>
  <defs>
    <linearGradient id="wall" x1="0" y1="0" x2="1" y2="1">
      <stop offset="0" stop-color="#fff8f5"/>
      <stop offset="1" stop-color="#ead4cc"/>
    </linearGradient>
    <linearGradient id="sheet" x1="0" y1="0" x2="0" y2="1">
      <stop offset="0" stop-color="#ffffff"/>
      <stop offset="1" stop-color="#f3dfd9"/>
    </linearGradient>
    <filter id="shadow" x="-20%" y="-20%" width="140%" height="140%">
      <feDropShadow dx="0" dy="24" stdDeviation="24" flood-color="#7e5960" flood-opacity=".20"/>
    </filter>
  </defs>
  <rect width="980" height="720" fill="url(#wall)"/>
  <path d="M0 543c176-83 357-105 550-65 160 34 289 97 430 31v211H0V543Z" fill="#f8ede9"/>
  <rect x="120" y="422" width="760" height="132" rx="42" fill="#d8a3a6" opacity=".26"/>
  <rect x="160" y="366" width="650" height="132" rx="56" fill="url(#sheet)" filter="url(#shadow)"/>
  <path d="M320 354c78-51 177-75 287-65 66 7 122 29 162 63 28 24 18 70-17 80-166 47-327 50-489 9-42-10-46-60-9-87h66Z" fill="#f7cfc7"/>
  <path d="M356 324c34-51 89-81 149-83 72-3 135 32 169 91 25 43 17 97-19 132-37 36-96 50-160 43-91-10-159-67-171-135-3-18 7-34 32-48Z" fill="#e7b3a8"/>
  <path d="M463 280c18-23 48-34 78-28 44 8 76 44 77 89 1 59-49 106-111 102-55-4-96-48-91-98 2-26 20-48 47-65Z" fill="#f1c5bb"/>
  <path d="M386 321c56-87 176-98 246-24 13 14 28 22 47 25-20-63-80-108-149-110-77-3-145 38-176 104 9 0 20 2 32 5Z" fill="#5b4040"/>
  <path d="M496 356c19 9 40 9 62 0" stroke="#8b545c" stroke-width="8" stroke-linecap="round" fill="none"/>
  <path d="M454 354c12 6 25 6 38 0" stroke="#8b545c" stroke-width="7" stroke-linecap="round" fill="none"/>
  <path d="M555 392c-18 17-44 18-64 2" stroke="#b96d76" stroke-width="7" stroke-linecap="round" fill="none"/>
  <path d="M650 276c42-38 88-57 138-57 39 0 70 25 70 56 0 37-39 62-91 61-42-1-82-16-117-60Z" fill="#c9838d"/>
  <path d="M733 214c-18-38-13-81 13-109 17-18 45-18 62 0 25 27 19 76-16 114-18 20-38 32-59 36v-41Z" fill="#e5b6b4"/>
  <path d="M205 244c46-58 115-86 207-84" stroke="#ffffff" stroke-width="22" stroke-linecap="round" opacity=".74"/>
  <path d="M196 286c69-47 145-66 228-56" stroke="#ffffff" stroke-width="12" stroke-linecap="round" opacity=".72"/>
  <circle cx="816" cy="118" r="18" fill="#d98b93" opacity=".5"/>
  <circle cx="126" cy="144" r="26" fill="#d98b93" opacity=".25"/>
  <circle cx="875" cy="422" r="12" fill="#8b545c" opacity=".22"/>
</svg>
