<svg xmlns="http://www.w3.org/2000/svg" viewBox="0 0 520 360" role="img" aria-labelledby="title">
  <title id="title">Harmonização facial</title>
  <rect width="520" height="360" rx="28" fill="#f8efec"/>
  <path d="M258 57c79 0 125 61 121 133-4 78-56 124-121 124s-117-46-121-124C133 118 179 57 258 57Z" fill="#efc2b7"/>
  <path d="M169 150c29-67 96-89 178-66 30 9 52 31 65 66-49-11-91-4-126 20-39-24-78-31-117-20Z" fill="#604343"/>
  <path d="M214 169c14 8 30 8 47 0M291 169c15 8 31 8 47 0" stroke="#7e5960" stroke-width="8" stroke-linecap="round" fill="none"/>
  <path d="M232 233c18 15 45 16 64 0" stroke="#b96d76" stroke-width="9" stroke-linecap="round" fill="none"/>
  <path d="M258 190c-9 25-16 40-23 47h46c-7-7-15-22-23-47Z" fill="#e4a99e"/>
  <path d="M103 101h93M324 101h93M96 257h93M331 257h93" stroke="#d98b93" stroke-width="10" stroke-linecap="round"/>
  <path d="M154 74l42 27-42 27M366 74l-42 27 42 27M147 230l42 27-42 27M373 230l-42 27 42 27" stroke="#8b545c" stroke-width="7" stroke-linecap="round" stroke-linejoin="round" fill="none"/>
</svg>
