<svg xmlns="http://www.w3.org/2000/svg" viewBox="0 0 520 360" role="img" aria-labelledby="title">
  <title id="title">Cuidado estético personalizado</title>
  <rect width="520" height="360" rx="28" fill="#fffaf7"/>
  <path d="M150 282c35-83 65-139 110-190 45 51 75 107 110 190H150Z" fill="#eac6bd"/>
  <path d="M229 109c20-43 51-66 94-70 27-3 51 16 54 43 4 38-28 75-76 86-30 7-54-8-72-59Z" fill="#d98b93"/>
  <path d="M217 110c-20-43-51-66-94-70-27-3-51 16-54 43-4 38 28 75 76 86 30 7 54-8 72-59Z" fill="#b96d76"/>
  <path d="M260 91v218" stroke="#7e5960" stroke-width="10" stroke-linecap="round"/>
  <path d="M169 236c62 26 123 26 183 0" stroke="#fff" stroke-width="14" stroke-linecap="round" opacity=".75"/>
  <circle cx="402" cy="102" r="18" fill="#8b545c" opacity=".18"/>
  <circle cx="100" cy="243" r="14" fill="#d98b93" opacity=".3"/>
</svg>
