<svg xmlns="http://www.w3.org/2000/svg" viewBox="0 0 560 170" role="img" aria-labelledby="title desc">
  <title id="title">Lili do Cambuci</title>
  <desc id="desc">Logo artesanal com cambuci, panela e assinatura Lili do Cambuci.</desc>
  <defs>
    <linearGradient id="fruit" x1="0" y1="0" x2="1" y2="1">
      <stop offset="0" stop-color="#b9cf6a"/>
      <stop offset="1" stop-color="#5f7f36"/>
    </linearGradient>
  </defs>
  <g transform="translate(22 28)">
    <path d="M26 64h100v34c0 24-19 43-43 43H69c-24 0-43-19-43-43V64Z" fill="#fff5dd" stroke="#6c452b" stroke-width="4"/>
    <path d="M17 67h118" stroke="#6c452b" stroke-width="8" stroke-linecap="round"/>
    <path d="M36 64c-7-17 5-29 0-43M72 64c-7-17 5-29 0-43M108 64c-7-17 5-29 0-43" fill="none" stroke="#d9893d" stroke-width="5" stroke-linecap="round" opacity=".75"/>
    <path d="M34 112c21 11 56 11 78 0" fill="none" stroke="#d9893d" stroke-width="5" stroke-linecap="round"/>
    <path d="M87 26c20-15 47-8 57 15 9 22-6 48-31 55-25 6-48-8-53-32-3-15 6-29 27-38Z" fill="url(#fruit)"/>
    <path d="M91 24c-6-13-2-24 13-32" fill="none" stroke="#5f7f36" stroke-width="5" stroke-linecap="round"/>
    <path d="M96 31c13 11 21 27 24 47" fill="none" stroke="#eef3c2" stroke-width="4" stroke-linecap="round" opacity=".65"/>
  </g>
  <g transform="translate(178 42)">
    <text x="0" y="42" fill="#4a2f20" font-family="Georgia, 'Times New Roman', serif" font-size="48" font-weight="700">Lili</text>
    <text x="99" y="42" fill="#6c452b" font-family="Georgia, 'Times New Roman', serif" font-size="34" font-style="italic">do</text>
    <text x="0" y="92" fill="#5f7f36" font-family="Georgia, 'Times New Roman', serif" font-size="48" font-weight="700">Cambuci</text>
    <path d="M3 112h270" stroke="#d9893d" stroke-width="3" stroke-linecap="round"/>
    <text x="2" y="136" fill="#7b604b" font-family="Arial, sans-serif" font-size="13" font-weight="700" letter-spacing="3.8">COZINHA ARTESANAL DA VOVO</text>
  </g>
</svg>
