<svg xmlns="http://www.w3.org/2000/svg" viewBox="0 0 420 120" role="img" aria-labelledby="title desc">
  <title id="title">Portfólio de Sites</title>
  <desc id="desc">Logo minimalista para portfólio de sites.</desc>
  <rect x="10" y="10" width="100" height="100" rx="18" fill="#101010"/>
  <path d="M36 76V36h30c14 0 24 8 24 20s-10 20-24 20H50v18H36V76Zm14-12h15c7 0 11-3 11-8s-4-8-11-8H50v16Z" fill="#f4efe8"/>
  <path d="M132 42h64v10h-52v16h47v10h-47v18h54v10h-66V42Zm89 0h13l34 45V42h12v64h-13l-34-45v45h-12V42Zm82 0h52v10h-40v18h36v10h-36v26h-12V42Z" fill="#101010"/>
  <text x="132" y="112" fill="#6f655f" font-family="Arial, sans-serif" font-size="14" font-weight="700" letter-spacing="3">WEBSITES PARA NEGOCIOS</text>
</svg>
