<svg xmlns="http://www.w3.org/2000/svg" viewBox="0 0 520 150" role="img" aria-labelledby="title desc">
  <title id="title">Gael Burger</title>
  <desc id="desc">Logotipo da lanchonete Gael Burger.</desc>
  <defs>
    <linearGradient id="bun" x1="0" y1="0" x2="1" y2="1">
      <stop offset="0" stop-color="#ffd166"/>
      <stop offset="1" stop-color="#e4572e"/>
    </linearGradient>
  </defs>
  <g transform="translate(24 28)">
    <path d="M16 48c5-25 28-42 62-42s57 17 62 42H16Z" fill="url(#bun)"/>
    <path d="M16 57h124" stroke="#fff2d3" stroke-width="6" stroke-linecap="round"/>
    <path d="M18 68h120c8 0 14 6 14 14s-6 14-14 14H18C10 96 4 90 4 82s6-14 14-14Z" fill="#2a1712"/>
    <path d="M23 101h110c8 0 14 6 14 14v1H9v-1c0-8 6-14 14-14Z" fill="#ffd166"/>
    <circle cx="54" cy="28" r="3" fill="#fff4d9"/>
    <circle cx="78" cy="20" r="3" fill="#fff4d9"/>
    <circle cx="101" cy="31" r="3" fill="#fff4d9"/>
    <path d="M31 65c12 11 24 11 36 0 12 11 24 11 36 0 12 11 24 11 36 0" fill="none" stroke="#73a942" stroke-width="6" stroke-linecap="round"/>
  </g>
  <g transform="translate(190 45)">
    <text x="0" y="35" fill="#fff8ed" font-family="Arial Black, Impact, sans-serif" font-size="43" font-weight="900" letter-spacing="1">GAEL</text>
    <text x="0" y="79" fill="#ffd166" font-family="Arial Black, Impact, sans-serif" font-size="43" font-weight="900" letter-spacing="1">BURGER</text>
    <path d="M2 94h220" stroke="#e4572e" stroke-width="4" stroke-linecap="round"/>
  </g>
</svg>
